<svg width="560" height="420" viewBox="0 0 560 420" fill="none" xmlns="http://www.w3.org/2000/svg">
  <rect x="10" y="10" width="540" height="400" rx="9" fill="#fbf9f4" stroke="#e3ddd0"/>
  <path d="M10 19a9 9 0 0 1 9-9h512a9 9 0 0 1 9 9v47H10z" fill="#191b20"/>
  <rect x="10" y="66" width="540" height="56" fill="#191b20"/>
  <rect x="24" y="18" width="8" height="8" rx="2" fill="#1f4d3c"/>
  <rect x="40" y="18" width="8" height="8" rx="2" fill="#2d3138"/>
  <rect x="56" y="18" width="8" height="8" rx="2" fill="#2d3138"/>
  <circle cx="520" cy="22" r="6" fill="#3a3f47"/>
  <circle cx="502" cy="22" r="6" fill="#3a3f47"/>
  <circle cx="484" cy="22" r="6" fill="#3a3f47"/>
  <g font-family="IBM Plex Sans, sans-serif" font-size="11" fill="#54585f">
    <text x="30" y="106">TOTAL VOLUME</text>
    <text x="165" y="106">SUCCESS RATE</text>
    <text x="315" y="106">AVG LATENCY</text>
    <text x="438" y="106">ACTIVE MERCHANTS</text>
  </g>
  <g font-family="Fraunces, Georgia, serif" font-size="22" fill="#191b20">
    <text x="30" y="134">£2.4M</text>
    <text x="165" y="134">99.87%</text>
    <text x="315" y="134">42ms</text>
    <text x="438" y="134">347</text>
  </g>
  <g font-family="IBM Plex Mono, monospace" font-size="10" fill="#1f4d3c">
    <text x="30" y="150">+12.3% vs last period</text>
    <text x="165" y="150">+0.04%</text>
    <text x="315" y="150">-3ms</text>
    <text x="438" y="150">+8 this month</text>
  </g>
  <path d="M24 168H536" stroke="#e3ddd0" stroke-width="0.5"/>
  <g transform="translate(24, 188)">
    <g font-family="IBM Plex Mono, monospace" font-size="10" fill="#8b8f96" text-anchor="end">
      <text x="-6" y="0">1.0</text>
      <text x="-6" y="52">0.8</text>
      <text x="-6" y="104">0.6</text>
      <text x="-6" y="156">0.4</text>
      <text x="-6" y="208">0.2</text>
      <text x="-6" y="260">0.0</text>
    </g>
    <g font-family="IBM Plex Sans, sans-serif" font-size="9" fill="#8b8f96" text-anchor="middle">
      <text x="40" y="280">Mon</text>
      <text x="104" y="280">Tue</text>
      <text x="168" y="280">Wed</text>
      <text x="232" y="280">Thu</text>
      <text x="296" y="280">Fri</text>
      <text x="360" y="280">Sat</text>
      <text x="424" y="280">Sun</text>
    </g>
    <g stroke="#e3ddd0" stroke-width="0.5">
      <line x1="0" y1="0" x2="464" y2="0"/>
      <line x1="0" y1="52" x2="464" y2="52"/>
      <line x1="0" y1="104" x2="464" y2="104"/>
      <line x1="0" y1="156" x2="464" y2="156"/>
      <line x1="0" y1="208" x2="464" y2="208"/>
      <line x1="0" y1="260" x2="464" y2="260"/>
    </g>
    <path d="M0,208 Q40,180 104,140 Q168,100 232,100 Q296,100 360,120 Q424,140 464,160" fill="none" stroke="#1f4d3c" stroke-width="2" stroke-linecap="round" stroke-linejoin="round"/>
    <path d="M0,260 L0,208 Q40,180 104,140 Q168,100 232,100 Q296,100 360,120 Q424,140 464,160 L464,260 Z" fill="#1f4d3c" opacity="0.08"/>
    <g fill="#1f4d3c">
      <circle cx="0" cy="208" r="4"/>
      <circle cx="104" cy="140" r="4"/>
      <circle cx="168" cy="100" r="4"/>
      <circle cx="232" cy="100" r="4"/>
      <circle cx="296" cy="100" r="4"/>
      <circle cx="360" cy="120" r="4"/>
      <circle cx="424" cy="140" r="4"/>
      <circle cx="464" cy="160" r="4"/>
    </g>
    <path d="M0,250 Q40,220 104,190 Q168,160 232,155 Q296,150 360,165 Q424,180 464,190" fill="none" stroke="#a8743a" stroke-width="1.5" stroke-dasharray="6 4" stroke-linecap="round" stroke-linejoin="round"/>
  </g>
  <g font-family="IBM Plex Sans, sans-serif" font-size="9" fill="#54585f" transform="translate(24, 430)">
    <circle cx="6" cy="6" r="3" fill="#1f4d3c"/>
    <text x="14" y="10">Success Rate</text>
    <circle cx="120" cy="6" r="3" fill="#a8743a"/>
    <text x="128" y="10">Volume (normalised)</text>
  </g>
</svg>